<svg width="92" height="32" viewBox="0 0 92 32" fill="none" xmlns="http://www.w3.org/2000/svg">
<rect width="32" height="32" rx="7.11111" fill="url(#paint0_linear_103_62884)"/>
<rect x="0.355556" y="0.355556" width="31.2889" height="31.2889" rx="6.75556" stroke="white" stroke-opacity="0.13" stroke-width="0.711111"/>
<path d="M16.1945 22.2526L19.581 25.1429H12.808L16.1945 22.2526Z" fill="white"/>
<path d="M16.9295 17.4964C16.9327 18.48 16.5838 19.436 15.9389 20.2103C15.2941 20.9846 14.3909 21.5322 13.3749 21.7647C12.3589 21.9973 11.2892 21.9013 10.3383 21.4922C9.38734 21.0831 8.6105 20.3848 8.13293 19.5098C7.65536 18.6347 7.50489 17.6339 7.70575 16.6686C7.9066 15.7032 8.4471 14.8297 9.24014 14.1885C10.0332 13.5474 11.0326 13.1762 12.0773 13.1345C13.122 13.0929 14.1512 13.3834 14.9991 13.9591L13.9636 15.3083C13.438 14.9514 12.7999 14.7713 12.1522 14.7971C11.5044 14.8229 10.8848 15.0531 10.3931 15.4506C9.90144 15.8481 9.56633 16.3897 9.4418 16.9882C9.31726 17.5867 9.41056 18.2072 9.70665 18.7498C10.0027 19.2923 10.4844 19.7253 11.074 19.9789C11.6636 20.2325 12.3267 20.292 12.9567 20.1478C13.5866 20.0037 14.1466 19.6642 14.5464 19.1841C14.9462 18.704 15.1625 18.1113 15.1605 17.5014L16.9295 17.4964Z" fill="white"/>
<path d="M11.6168 12.1032C11.4469 11.3116 11.5129 10.4912 11.8077 9.73268C12.1025 8.97417 12.6145 8.30711 13.2872 7.80526C13.9598 7.30341 14.7669 6.98632 15.6192 6.88903C16.4715 6.79175 17.3357 6.91807 18.1165 7.25402C18.8972 7.58998 19.5639 8.12248 20.043 8.79266C20.5221 9.46284 20.7948 10.2446 20.831 11.0515C20.8673 11.8584 20.6656 12.659 20.2483 13.3648C19.831 14.0706 19.2144 14.6541 18.4665 15.0507L17.5976 13.6012C18.0613 13.3553 18.4436 12.9935 18.7023 12.5559C18.961 12.1184 19.0861 11.622 19.0636 11.1217C19.0412 10.6214 18.8721 10.1367 18.575 9.72124C18.278 9.30573 17.8646 8.97557 17.3806 8.76728C16.8965 8.55899 16.3607 8.48067 15.8323 8.54099C15.3038 8.6013 14.8035 8.7979 14.3864 9.10905C13.9694 9.42019 13.6519 9.83377 13.4691 10.304C13.2864 10.7743 13.2454 11.283 13.3508 11.7738L11.6168 12.1032Z" fill="white"/>
<path d="M17.0151 13.9362C17.7131 13.466 18.5357 13.1864 19.3921 13.1286C20.2484 13.0707 21.1051 13.2367 21.8673 13.6082C22.6296 13.9798 23.2678 14.5424 23.7114 15.2338C24.155 15.9253 24.3867 16.7187 24.3808 17.5263C24.375 18.3338 24.1319 19.1242 23.6783 19.8099C23.2247 20.4956 22.5784 21.05 21.8109 21.4117C21.0433 21.7735 20.1843 21.9285 19.3289 21.8596C18.4735 21.7908 17.655 21.5008 16.9638 21.0216L18.0133 19.6821C18.4418 19.9791 18.9493 20.1589 19.4797 20.2016C20.01 20.2443 20.5426 20.1482 21.0185 19.9239C21.4944 19.6996 21.8951 19.3559 22.1763 18.9308C22.4575 18.5056 22.6083 18.0156 22.6119 17.5149C22.6155 17.0142 22.4719 16.5223 22.1969 16.0936C21.9218 15.6649 21.5261 15.3161 21.0535 15.0858C20.5809 14.8554 20.0498 14.7525 19.5189 14.7884C18.9879 14.8242 18.4779 14.9975 18.0451 15.2891L17.0151 13.9362Z" fill="white"/>
<path d="M39.3209 22.7702V9.17237H44.4153C46.0751 9.17237 47.3328 9.47241 48.1882 10.0725C49.0564 10.6598 49.4905 11.5855 49.4905 12.8495C49.4905 13.6539 49.2543 14.3114 48.7819 14.8222C48.3095 15.3329 47.652 15.6393 46.8093 15.7415C47.8435 15.8436 48.6415 16.1883 49.2033 16.7757C49.7778 17.3502 50.0651 18.1035 50.0651 19.0356C50.0651 20.2868 49.631 21.2253 48.7628 21.8509C47.9073 22.4637 46.688 22.7702 45.1048 22.7702H39.3209ZM41.8106 14.8796H44.3387C45.1558 14.8796 45.7942 14.7264 46.2539 14.42C46.7135 14.1135 46.9433 13.6667 46.9433 13.0793C46.9433 12.4665 46.7199 12.0132 46.273 11.7196C45.8261 11.4259 45.1814 11.2791 44.3387 11.2791H41.8106V14.8796ZM41.8106 20.6635H44.9898C45.7687 20.6635 46.3815 20.5039 46.8284 20.1847C47.2881 19.8655 47.5179 19.3931 47.5179 18.7674C47.5179 18.1418 47.2881 17.663 46.8284 17.3311C46.3815 16.9991 45.7687 16.8331 44.9898 16.8331H41.8106V20.6635Z" fill="#252B37"/>
<path d="M51.6798 22.7702V12.5431H54.1313V22.7702H51.6798ZM51.6415 11.1833V9.61642L54.1887 9V11.1833H51.6415Z" fill="#252B37"/>
<path d="M59.5197 22.7702C58.4982 22.7702 57.7449 22.5404 57.2597 22.0807C56.7873 21.6083 56.5511 20.8614 56.5511 19.8399V14.4391H54.9424V12.5431H56.5511V10.1491H59.0026V12.5431H61.703V14.4391H59.0026V19.6101C59.0026 20.0953 59.1047 20.4273 59.309 20.606C59.526 20.7848 59.8452 20.8741 60.2666 20.8741H61.703V22.7702H59.5197Z" fill="#252B37"/>
<path d="M65.3171 22.7702C64.5638 22.7702 63.9637 22.5787 63.5169 22.1956C63.0828 21.8126 62.8657 21.1997 62.8657 20.357V9.17237H65.3171V20.1081C65.3171 20.6188 65.5725 20.8741 66.0832 20.8741H66.8301V22.7702H65.3171Z" fill="#252B37"/>
<path d="M68.1033 22.7702V12.5431H70.5547V22.7702H68.1033ZM68.065 11.1833V9.61642L70.6122 9V11.1833H68.065Z" fill="#252B37"/>
<path d="M72.2374 22.7702V12.5431H74.459L74.5165 14.2859C74.7974 13.5837 75.2059 13.0793 75.7422 12.7729C76.2912 12.4665 76.9041 12.3133 77.5808 12.3133C78.7043 12.3133 79.5662 12.6772 80.1662 13.4049C80.7663 14.1199 81.0664 15.052 81.0664 16.2011V22.7702H78.6149V16.9863C78.6149 16.1181 78.4809 15.4542 78.2128 14.9945C77.9574 14.5349 77.4978 14.3051 76.8338 14.3051C76.1699 14.3051 75.6464 14.5349 75.2634 14.9945C74.8803 15.4542 74.6888 16.1181 74.6888 16.9863V22.7702H72.2374Z" fill="#252B37"/>
<path d="M87.1929 23C86.1715 23 85.2841 22.7829 84.5308 22.3488C83.7902 21.902 83.2093 21.2763 82.788 20.472C82.3794 19.6676 82.1751 18.7291 82.1751 17.6566C82.1751 16.5841 82.3794 15.6457 82.788 14.8413C83.1965 14.0369 83.7711 13.4177 84.5116 12.9836C85.2649 12.5367 86.1395 12.3133 87.1354 12.3133C88.1186 12.3133 88.974 12.5303 89.7018 12.9644C90.4295 13.3985 90.9913 14.0242 91.3871 14.8413C91.7957 15.6585 92 16.6416 92 17.7907V18.3461H84.7223C84.7606 19.2399 85.0032 19.9166 85.4501 20.3762C85.8969 20.8231 86.4843 21.0465 87.212 21.0465C88.3228 21.0465 89.0315 20.5741 89.3379 19.6293L91.8468 19.7825C91.5659 20.7784 91.0105 21.5636 90.1806 22.1382C89.3634 22.7127 88.3675 23 87.1929 23ZM84.7223 16.699H89.4528C89.4017 15.8691 89.1655 15.2563 88.7442 14.8605C88.3228 14.4519 87.7866 14.2476 87.1354 14.2476C86.4715 14.2476 85.9289 14.4583 85.5075 14.8796C85.0862 15.301 84.8244 15.9074 84.7223 16.699Z" fill="#252B37"/>
<defs>
<linearGradient id="paint0_linear_103_62884" x1="32" y1="32" x2="-288.381" y2="-219.429" gradientUnits="userSpaceOnUse">
<stop stop-color="#4556F3"/>
<stop offset="1" stop-color="white"/>
</linearGradient>
</defs>
</svg>
